<?xml version="1.0" encoding="utf-8"?>
<!-- Generator: Adobe Illustrator 24.3.0, SVG Export Plug-In . SVG Version: 6.00 Build 0)  -->
<svg version="1.1" id="Layer_1" xmlns="http://www.w3.org/2000/svg" xmlns:xlink="http://www.w3.org/1999/xlink" x="0px" y="0px"
	 viewBox="0 0 1920 1080" style="enable-background:new 0 0 1920 1080;" xml:space="preserve">
<style type="text/css">
	.st0{fill:#FFFFFF;}
	.st1{fill:#D9745A;}
	.st2{fill:#F2F2F2;}
	.st3{fill:none;stroke:#3F3D56;stroke-miterlimit:10;}
	.st4{fill:#6C63FF;}
	.st5{fill:#A0616A;}
	.st6{fill:#55536E;}
	.st7{fill:#3F3D56;}
	.st8{fill:#2E4552;}
</style>
<path class="st0" d="M308.9,789.2c0,0.1-0.1,0.2-0.1,0.2c-3.6,6.6-7,13.2-10.4,19.9c-0.6,1.1-1.2,2.3-1.8,3.5v-5.7
	c0.6-1.1,1.2-2.3,1.8-3.4c2.6-5.1,5.3-10.1,8-15.2c0-0.1,0.1-0.1,0.1-0.2C307.3,787.2,309.3,788,308.9,789.2z"/>
<ellipse class="st0" cx="179.1" cy="702.3" rx="17.5" ry="16.8"/>
<g>
	<path class="st1" d="M529,620.3v42.1h-1.4v-0.4H65.3v0.4h-1.4v-42.1c0-10.1,10.2-18.3,22.8-18.3h419.5
		C518.8,602,529,610.2,529,620.3z"/>
	<path d="M506.2,602H86.7c-12.6,0-22.8,8.2-22.8,18.3v240.3c0,10.1,10.2,18.3,22.8,18.3h419.5c12.6,0,22.8-8.2,22.8-18.3V620.3
		C529,610.2,518.8,602,506.2,602z M527.6,860.6c0,9.5-9.6,17.2-21.4,17.2H86.7c-11.8,0-21.4-7.7-21.4-17.2V620.3
		c0-9.5,9.6-17.2,21.4-17.2h419.5c11.8,0,21.4,7.7,21.4,17.2V860.6z"/>
	<ellipse class="st0" cx="157.9" cy="632.2" rx="13.8" ry="11.1"/>
	<path class="st1" d="M197.8,755.7h-82.2c-7.3,0-13.1-4.7-13.1-10.5V714c0-5.8,5.9-10.5,13.1-10.5h82.2c7.3,0,13.1,4.7,13.1,10.5
		v31.1C211,751,205.1,755.7,197.8,755.7z"/>
	<path class="st1" d="M337.7,755.7h-82.2c-7.3,0-13.1-4.7-13.1-10.5V714c0-5.8,5.9-10.5,13.1-10.5h82.2c7.3,0,13.1,4.7,13.1,10.5
		v31.1C350.8,751,345,755.7,337.7,755.7z"/>
	<path class="st2" d="M337.7,836.1h-82.2c-7.5,0-13.5-4.9-13.5-10.8v-31.1c0-6,6.1-10.8,13.5-10.8h82.2c7.5,0,13.5,4.9,13.5,10.8
		v31.1C351.2,831.3,345.2,836.1,337.7,836.1z"/>
	<path class="st2" d="M197.6,836.1h-82.2c-7.5,0-13.5-4.9-13.5-10.8v-31.1c0-6,6.1-10.8,13.5-10.8h82.2c7.5,0,13.5,4.9,13.5,10.8
		v31.1C211.1,831.3,205,836.1,197.6,836.1z"/>
	<path class="st2" d="M478.3,836.7H396c-7.5,0-13.5-4.9-13.5-10.8v-31.1c0-6,6.1-10.8,13.5-10.8h82.2c7.5,0,13.5,4.9,13.5,10.8v31.1
		C491.8,831.8,485.7,836.7,478.3,836.7z"/>
	<path class="st2" d="M478.3,756.3H396c-7.5,0-13.5-4.9-13.5-10.8v-31.1c0-6,6.1-10.8,13.5-10.8h82.2c7.5,0,13.5,4.9,13.5,10.8v31.1
		C491.8,751.4,485.7,756.3,478.3,756.3z"/>
	<ellipse class="st0" cx="156.7" cy="729.6" rx="22.3" ry="17.9"/>
	<path class="st1" d="M154.5,736.4c-0.5,0-1-0.1-1.4-0.4l0,0l-5.2-3.2c-1-0.6-1.2-1.8-0.4-2.6c0.8-0.8,2.2-1,3.3-0.3l0,0l3.4,2.1
		l8-8.4c0.8-0.8,2.2-1,3.3-0.3c0,0,0,0,0,0l0,0.1l0.1-0.1c1,0.6,1.2,1.8,0.4,2.6l-9.4,9.9C155.9,736.1,155.2,736.4,154.5,736.4z"/>
	<ellipse class="st0" cx="297" cy="729.3" rx="22.3" ry="17.9"/>
	<path class="st1" d="M294.8,736.1c-0.5,0-1-0.1-1.4-0.4l0,0l-5.2-3.2c-1-0.6-1.2-1.8-0.4-2.6c0.8-0.8,2.2-1,3.3-0.3l0,0l3.4,2.1
		l8-8.4c0.8-0.8,2.2-1,3.3-0.3c0,0,0,0,0,0l0,0.1l0.1-0.1c1,0.6,1.2,1.8,0.4,2.6l-9.4,9.9C296.2,735.9,295.5,736.1,294.8,736.1z"/>
	<ellipse class="st0" cx="437.4" cy="632.3" rx="13.8" ry="11.1"/>
</g>
<g>
	<ellipse class="st1" cx="162.5" cy="1020.2" rx="104" ry="20"/>
	<ellipse class="st3" cx="153" cy="1014.3" rx="104" ry="20"/>
	<ellipse class="st4" cx="154.7" cy="820.6" rx="20.6" ry="17.6"/>
	<ellipse class="st3" cx="151.2" cy="817.8" rx="20.6" ry="17.6"/>
	<rect x="124.6" y="850.4" class="st2" width="56.5" height="4.7"/>
	<rect x="121.8" y="848.6" class="st3" width="56.5" height="4.7"/>
	<path class="st5" d="M202.7,780.5l-3.4-6.4c0,0-8.2-18.8-0.7-15.3c7.6,3.5,10.3,13,10.3,13l2,5.8L202.7,780.5z"/>
	<path class="st5" d="M108.5,878.1c0,0,11.7,19.4,15.1,20c3.4,0.6,3.4-17.6,3.4-17.6s-6.9-5.3-9.6-4.7
		C114.6,876.3,108.5,878.1,108.5,878.1z"/>
	<path class="st6" d="M125.6,1000.3c0,0-6.2,3-3.4,9.4c2.7,6.4,4.2,4.7,5.5,10c1.4,5.3,13.8,4.7,14.5,2.3c0.7-2.3,2.1-11.7-1.4-15.3
		C137.3,1003.2,125.6,1000.3,125.6,1000.3z"/>
	<path class="st6" d="M186.8,1000.3c0,0,6.2,3,3.4,9.4c-2.7,6.4-4.2,4.7-5.5,10c-1.4,5.3-13.8,4.7-14.5,2.3
		c-0.7-2.3-2.1-11.7,1.4-15.3C175.2,1003.2,186.8,1000.3,186.8,1000.3z"/>
	<path class="st7" d="M129,882.7c0,0-5.5,3-6.9,21.2c-1.4,18.2,0.7,38.8,1.4,43.5c0.8,4.7-0.7,11.7-2.1,15.3
		c-1.4,3.5,3.4,30.6,3.4,30.6c-2.1,3.7-2.1,8,0,11.7c3.4,6.4,13.8,13,16.6,6.4c0.1-2.2,0.9-4.5,2.1-6.4c2.1-3.5-1.4-17.6-1.4-17.6
		s2.7-22.3,2.1-28.2s8.2-40.6,9.6-46.4s0.7-10.5,1.4-8.9c0.7,1.8,13.1,50.5,13.1,50.5s-1.4,31.1-0.7,35.2c0.7,4.1-2.7,12.3-0.7,15.3
		c2.1,3,6.2,13.5,13.8,7.1c7.6-6.4,6.2-8.9,6.9-11.7c0.7-3,0-6.4,0-11.2c0-4.8,5.5-31.1,2.7-35.2c-2.7-4.1-1.4-9.4-0.7-18.8
		c0.7-9.4,1.4-54.6-5.5-62.8C177.2,864,129,882.7,129,882.7z"/>
	<ellipse class="st5" cx="146" cy="758.5" rx="16.6" ry="14.1"/>
	<path class="st5" d="M135.2,764c0,0,0.7,21.2-2.7,24.7c-3.4,3.5,29.6-3,29.6-3s-7.6-13.5-2.7-22.3C164.1,754.7,135.2,764,135.2,764
		z"/>
	<path class="st8" d="M129,786.4c0,0,1.4-4.7,9.6-5.9c8.2-1.2,18.1-2.3,21.1,0s4.4,5.3,6.4,5.3h9.6l15.1,22.9c0,0-7.6,7.6-5.5,21.7
		c2.1,14.1,5.5,40,5.5,40c-5.5,6.2-10.3,13-14.5,20c-6.9,11.7-54.4,10.5-51.6-10c0,0,3.4-5.3,2.1-10c-1.4-4.7-5.5-36.5-5.5-36.5
		l-15.8-35.8C105.7,798.2,127.6,788.8,129,786.4z"/>
	<path class="st8" d="M110.5,797.6h-4.8c0,0-2.7,13.5-2.1,21.7c0.7,8.2,0.7,27.6,0.7,27.6s-2.7,4.7-2.1,8.9
		c0.7,4.2,2.1,15.3,2.1,15.3s0.7,15.9,13.8,7.6c0,0,4.2-1.8,2.1-9.4c-2.1-7.6,1.4-15.9,1.4-15.9s-2.1-5.3-1.4-8.9
		c0.7-3.5,3.4-14.7,3.4-14.7L110.5,797.6z"/>
	<path class="st8" d="M172.3,787.6l3.4-1.8c0,0,4.8-1.8,11.7,0c6.9,1.8,10.3,1.2,13.1,0.6c2.7-0.7,0.7-6.4,0.7-6.4s5.5-8.2,11-3.5
		c5.5,4.7,5.5,14.1,5.5,14.1s3.4,5.9-9,9.4s-17.9,8.9-17.9,8.9H177L172.3,787.6z"/>
	<path class="st7" d="M147,775.3c0.1-1,0.9-2,2-2.4c0.8-0.3,1.6-0.4,2.4-0.4c2.4-0.3,4.7-1,6.1-2.5c1.8-2.1,1.3-4.8,2.7-7.1
		c0.7-0.8,1.4-1.7,2.2-2.4c2.6-2.9,2.9-6.6,3.2-10.2c0.1-0.7,0-1.5-0.3-2.1c-0.4-0.6-0.9-1.2-1.6-1.7c-1-1-1.6-2.3-1.6-3.6
		c0.1-2.8-4.4-4.6-7.8-5.5c-3.3-0.9-6.7-1.1-10.2-1.1c-2,0-4.1,0-5.9,0.6c-1,0.4-2.1,0.8-2.9,1.5c-3.9,2.4-7.5,5.3-8.7,9
		c-0.5,1.7-0.8,3.4-0.7,5.1c-0.1,0.6,0,1.1,0.3,1.6c0.5,0.7,1.5,1.2,2.3,1.9c1.3,1.2,1.1,3.1,1.2,4.7c0.4,3.4,2.6,6.4,6.1,8.1
		c0.7,0.3,1.4,0.7,1.9,1.1c0.4,0.5,0.8,1,1,1.6C140.4,773.7,143.8,775.2,147,775.3z"/>
	<ellipse class="st5" cx="196.7" cy="758" rx="6.2" ry="5"/>
</g>
<circle class="st1" cx="1570" cy="219" r="150"/>
<circle class="st1" cx="1420" cy="875" r="75"/>
<circle class="st1" cx="1670" cy="774" r="100"/>
</svg>
