<?xml version="1.0" encoding="utf-8"?>
<!-- Generator: Adobe Illustrator 24.3.0, SVG Export Plug-In . SVG Version: 6.00 Build 0)  -->
<svg version="1.1" id="Icons" xmlns="http://www.w3.org/2000/svg" xmlns:xlink="http://www.w3.org/1999/xlink" x="0px" y="0px"
	 viewBox="0 0 512 512" style="enable-background:new 0 0 512 512;" xml:space="preserve">
<style type="text/css">
	.st0{fill:#D9745A;}
</style>
<path class="st0" d="M79.6,453.2c-3.8,0-6.9-3.1-6.9-6.9V69.2c0-30.6,24.8-55.3,55.4-55.4h304.4c3.8,0,6.9,3.1,6.9,6.9v380.5
	c0,3.8-3.1,6.9-6.9,6.9c-3.8,0-6.9-3.1-6.9-6.9V27.7H128c-22.9,0-41.5,18.6-41.5,41.5v377.1C86.5,450.1,83.4,453.2,79.6,453.2z"/>
<path class="st0" d="M294,498.2h-20.5c-3.8,0-6.9-3.1-6.9-6.9c0-3.8,3.1-6.9,6.9-6.9H294c3.8,0,6.9,3.1,6.9,6.9
	C300.9,495.1,297.8,498.2,294,498.2z"/>
<path class="st0" d="M432.4,498.2h-90c-3.8,0-6.9-3.1-6.9-6.9c0-3.8,3.1-6.9,6.9-6.9h83.1v-76.1h-301c-21,0-38.1,17-38.1,38.1
	c0,21,17,38.1,38.1,38.1h31.9c3.8,0,6.9,3.1,6.9,6.9c0,3.8-3.1,6.9-6.9,6.9h-31.9c-28.7,0-51.9-23.2-51.9-51.9
	c0-28.7,23.2-51.9,51.9-51.9h307.9c3.8,0,6.9,3.1,6.9,6.9v89.9C439.4,495.1,436.3,498.2,432.4,498.2z"/>
<path class="st0" d="M225,498.2h-20.1c-3.8,0-6.9-3.1-6.9-6.9c0-3.8,3.1-6.9,6.9-6.9H225c3.8,0,6.9,3.1,6.9,6.9
	C231.9,495.1,228.8,498.2,225,498.2z"/>
<path class="st0" d="M148.8,408.2c-3.8,0-6.9-3.1-6.9-6.9V20.8c0-3.8,3.1-6.9,6.9-6.9s6.9,3.1,6.9,6.9v380.5
	C155.7,405.1,152.6,408.2,148.8,408.2z"/>
<path class="st0" d="M290.6,242.2c-1.5,0-2.9-0.5-4.1-1.3c-2.6-1.9-64.8-47.9-64.8-86.7c0-24,19.4-43.4,43.4-43.4
	c9.2,0,18.1,2.9,25.5,8.3c19.4-14.1,46.5-9.8,60.6,9.5c5.4,7.4,8.3,16.4,8.3,25.5c0,38.7-62.2,84.7-64.8,86.7
	C293.5,241.7,292.1,242.2,290.6,242.2z M265.1,124.6c-16.3,0-29.5,13.2-29.5,29.5c0,24.4,36.6,58,55.1,72.4
	c18.5-14.4,55.1-48,55.1-72.4c0-16.3-13.2-29.5-29.5-29.5c-7.7,0-15.2,3-20.7,8.5c-2.7,2.6-7,2.6-9.7,0
	C280.2,127.6,272.8,124.6,265.1,124.6L265.1,124.6z"/>
</svg>
