<?xml version="1.0" encoding="utf-8"?>
<!-- Generator: Adobe Illustrator 24.3.0, SVG Export Plug-In . SVG Version: 6.00 Build 0)  -->
<svg version="1.1" id="Capa_1" xmlns="http://www.w3.org/2000/svg" xmlns:xlink="http://www.w3.org/1999/xlink" x="0px" y="0px"
	 viewBox="0 0 512 512" style="enable-background:new 0 0 512 512;" xml:space="preserve">
<style type="text/css">
	.st0{fill:#D9745A;}
</style>
<g>
	<path class="st0" d="M54.3,0v512h298.5l104.8-104.8V0H54.3z M84.3,30h343.3v349.7H325.3V482h-241L84.3,30L84.3,30z M412.8,409.7
		l-57.5,57.5v-57.5H412.8z"/>
	<path class="st0" d="M192,91.7h128v30H192V91.7z"/>
	<path class="st0" d="M133.3,166.3h245.3v30H133.3V166.3z"/>
	<path class="st0" d="M133.3,230.3h245.3v30H133.3V230.3z"/>
	<path class="st0" d="M133.3,294.3h245.3v30H133.3V294.3z"/>
	<path class="st0" d="M133.3,379.7h31.5v30h-31.5L133.3,379.7z"/>
	<path class="st0" d="M194.8,379.7H256v30h-61.2L194.8,379.7z"/>
</g>
</svg>
