<?xml version="1.0" encoding="utf-8"?>
<!-- Generator: Adobe Illustrator 24.3.0, SVG Export Plug-In . SVG Version: 6.00 Build 0)  -->
<svg version="1.1" id="Layer_1" xmlns="http://www.w3.org/2000/svg" xmlns:xlink="http://www.w3.org/1999/xlink" x="0px" y="0px"
	 viewBox="0 0 1920 1080" style="enable-background:new 0 0 1920 1080;" xml:space="preserve">
<style type="text/css">
	.st0{fill:#D9745A;}
	.st1{fill:#F86B75;}
	.st2{fill:#FAD375;}
	.st3{fill:#8BCC55;}
	.st4{fill:none;stroke:#3F3D56;stroke-miterlimit:10;}
	.st5{fill:#F2F2F2;}
	.st6{fill:#6C63FF;}
	.st7{fill:#79758C;}
	.st8{fill:#3F3D56;}
	.st9{fill:#A0616A;}
	.st10{fill:#55536E;}
	.st11{fill:#2E4552;}
</style>
<g>
	<ellipse class="st0" cx="456.3" cy="718.8" rx="18.2" ry="21.1"/>
	<ellipse class="st0" cx="529.6" cy="718.8" rx="18.2" ry="21.1"/>
	<ellipse class="st1" cx="250.2" cy="782" rx="1.8" ry="2.1"/>
	<ellipse class="st2" cx="255.6" cy="782" rx="1.8" ry="2.1"/>
	<ellipse class="st3" cx="261.1" cy="782" rx="1.8" ry="2.1"/>
	<rect x="283.2" y="814.6" class="st0" width="124.8" height="44.9"/>
	<polyline class="st4" points="463.5,805.8 463.5,926.4 242.9,926.4 242.9,774.9 422.4,774.9 	"/>
	<line class="st4" x1="242.9" y1="786.4" x2="422.7" y2="786.4"/>
	<ellipse class="st4" cx="250.8" cy="780.6" rx="1.8" ry="2.1"/>
	<ellipse class="st4" cx="256.2" cy="780.6" rx="1.8" ry="2.1"/>
	<ellipse class="st4" cx="261.7" cy="780.6" rx="1.8" ry="2.1"/>
	<rect x="290.8" y="805.8" class="st4" width="124.8" height="44.9"/>
	<ellipse class="st1" cx="429.6" cy="660.6" rx="1.8" ry="2.1"/>
	<ellipse class="st2" cx="435.1" cy="660.6" rx="1.8" ry="2.1"/>
	<ellipse class="st3" cx="440.5" cy="660.6" rx="1.8" ry="2.1"/>
	<rect x="422.4" y="653.6" class="st4" width="220.6" height="151.5"/>
	<line class="st4" x1="422.4" y1="665.1" x2="643" y2="665.1"/>
	<ellipse class="st4" cx="430.3" cy="659.2" rx="1.8" ry="2.1"/>
	<ellipse class="st4" cx="435.7" cy="659.2" rx="1.8" ry="2.1"/>
	<ellipse class="st4" cx="441.1" cy="659.2" rx="1.8" ry="2.1"/>
	<ellipse class="st4" cx="459.4" cy="715.3" rx="18.2" ry="21.1"/>
	<ellipse class="st4" cx="532.7" cy="715.3" rx="18.2" ry="21.1"/>
	<rect x="431.8" y="754.3" class="st5" width="49.7" height="5.6"/>
	<rect x="505.7" y="754.3" class="st5" width="49.7" height="5.6"/>
	<rect x="434.1" y="752.1" class="st4" width="49.7" height="5.6"/>
	<rect x="508.1" y="752.1" class="st4" width="49.7" height="5.6"/>
	<rect x="251.1" y="877" class="st5" width="38.2" height="37.9"/>
	<rect x="321.7" y="877.4" class="st5" width="38.2" height="37.9"/>
	<rect x="392.3" y="877.7" class="st5" width="38.2" height="37.9"/>
	<rect x="256.5" y="870" class="st4" width="38.2" height="37.9"/>
	<rect x="327.2" y="870.3" class="st4" width="38.2" height="37.9"/>
	<rect x="397.7" y="870.7" class="st4" width="38.2" height="37.9"/>
</g>
<g>
	<ellipse class="st1" cx="137" cy="618.1" rx="1.8" ry="2.1"/>
	<ellipse class="st2" cx="142.4" cy="618.1" rx="1.8" ry="2.1"/>
	<ellipse class="st3" cx="147.9" cy="618.1" rx="1.8" ry="2.1"/>
	<rect x="170" y="650.7" class="st0" width="124.8" height="44.9"/>
	<rect x="129.7" y="611" class="st4" width="220.6" height="151.5"/>
	<line class="st4" x1="129.7" y1="622.5" x2="350.3" y2="622.5"/>
	<ellipse class="st4" cx="137.6" cy="616.7" rx="1.8" ry="2.1"/>
	<ellipse class="st4" cx="143" cy="616.7" rx="1.8" ry="2.1"/>
	<ellipse class="st4" cx="148.5" cy="616.7" rx="1.8" ry="2.1"/>
	<rect x="177.6" y="641.9" class="st4" width="124.8" height="44.9"/>
	<rect x="154.2" y="715.2" class="st5" width="167.3" height="5.9"/>
	<rect x="154.2" y="729.2" class="st5" width="167.3" height="5.9"/>
	<rect x="154.2" y="743.1" class="st5" width="167.3" height="5.9"/>
	<rect x="156.1" y="712.5" class="st4" width="167.3" height="5.9"/>
	<rect x="156.1" y="726.4" class="st4" width="167.3" height="5.9"/>
	<rect x="156.1" y="740.3" class="st4" width="167.3" height="5.9"/>
</g>
<g>
	<ellipse class="st0" cx="145.7" cy="992.1" rx="83.5" ry="19.9"/>
	<ellipse class="st4" cx="138.1" cy="986.3" rx="83.5" ry="19.9"/>
	<ellipse class="st6" cx="139.4" cy="793.3" rx="16.6" ry="17.6"/>
	<ellipse class="st4" cx="136.6" cy="790.4" rx="16.6" ry="17.6"/>
	<rect x="115.3" y="822.9" class="st5" width="45.4" height="4.6"/>
	<rect x="113.1" y="821.2" class="st4" width="45.4" height="4.6"/>
	<polygon class="st7" points="180.8,732.7 196.3,741.8 179.6,735.6 	"/>
	<ellipse transform="matrix(0.2834 -0.959 0.959 0.2834 -577.285 697.4914)" class="st8" cx="178.1" cy="735" rx="9.2" ry="4.4"/>
	
		<ellipse transform="matrix(0.2823 -0.9593 0.9593 0.2823 -580.3943 680.3494)" class="st8" cx="164.5" cy="728.1" rx="6.4" ry="3.3"/>
	<polygon class="st8" points="177,729.7 166.7,725.8 164.7,732.2 174.5,739.3 	"/>
	<path class="st9" d="M178,753.3l-2.7-6.4c0,0-6.6-18.8-0.5-15.2s8.3,12.9,8.3,12.9l1.6,5.8L178,753.3z"/>
	<path class="st9" d="M102.4,850.5c0,0,9.4,19.3,12.2,19.9c2.7,0.6,2.7-17.6,2.7-17.6s-5.5-5.3-7.7-4.6
		C107.3,848.8,102.4,850.5,102.4,850.5z"/>
	<path class="st10" d="M116.1,972.3c0,0-5,3-2.7,9.4c2.2,6.4,3.3,4.6,4.4,9.9c1.1,5.3,11.1,4.6,11.6,2.3s1.7-11.7-1.1-15.2
		C125.5,975.2,116.1,972.3,116.1,972.3z"/>
	<path class="st10" d="M165.3,972.3c0,0,5,3,2.7,9.4c-2.2,6.4-3.3,4.6-4.4,9.9c-1.1,5.3-11.1,4.6-11.6,2.3s-1.7-11.7,1.1-15.2
		C155.9,975.2,165.3,972.3,165.3,972.3z"/>
	<path class="st8" d="M118.8,855.2c0,0-4.4,3-5.5,21.1c-1.1,18.1,0.5,38.7,1.1,43.3s-0.5,11.7-1.7,15.2s2.7,30.5,2.7,30.5
		c-1.7,3.7-1.7,8,0,11.7c2.7,6.4,11.1,12.9,13.3,6.4c0.1-2.2,0.7-4.5,1.7-6.4c1.7-3.5-1.1-17.6-1.1-17.6s2.2-22.2,1.7-28.1
		c-0.5-5.9,6.6-40.4,7.7-46.3c1.1-5.9,0.5-10.5,1.1-8.8c0.5,1.8,10.5,50.4,10.5,50.4s-1.1,31-0.5,35.1c0.5,4.1-2.2,12.3-0.5,15.2
		c1.7,3,5,13.5,11.1,7.1c6.1-6.4,5-8.8,5.5-11.7c0.5-3,0-6.4,0-11.1s4.4-31,2.2-35.1c-2.2-4.1-1.1-9.4-0.5-18.8
		c0.5-9.4,1.1-54.4-4.4-62.6C157.5,836.5,118.8,855.2,118.8,855.2z"/>
	<ellipse class="st9" cx="132.4" cy="731.4" rx="13.3" ry="14"/>
	<path class="st9" d="M123.8,736.9c0,0,0.5,21.1-2.2,24.6s23.8-3,23.8-3s-6.1-13.5-2.2-22.2C147,727.6,123.8,736.9,123.8,736.9z"/>
	<path class="st11" d="M118.8,759.2c0,0,1.1-4.6,7.7-5.9c6.6-1.2,14.5-2.3,16.9,0c2.4,2.3,3.6,5.3,5.2,5.3h7.7l12.2,22.9
		c0,0-6.1,7.6-4.4,21.6c1.7,14,4.4,39.9,4.4,39.9c-4.4,6.2-8.3,12.9-11.6,19.9c-5.5,11.7-43.7,10.5-41.5-9.9c0,0,2.7-5.3,1.7-9.9
		c-1.1-4.6-4.4-36.3-4.4-36.3L100.1,771C100.1,770.9,117.7,761.5,118.8,759.2z"/>
	<path class="st11" d="M103.9,770.3h-3.9c0,0-2.2,13.5-1.7,21.6s0.5,27.5,0.5,27.5s-2.2,4.6-1.7,8.8s1.7,15.2,1.7,15.2
		s0.5,15.8,11.1,7.6c0,0,3.3-1.8,1.7-9.4s1.1-15.8,1.1-15.8s-1.7-5.3-1.1-8.8s2.7-14.7,2.7-14.7L103.9,770.3z"/>
	<path class="st11" d="M153.6,760.4l2.7-1.8c0,0,3.9-1.8,9.4,0c5.5,1.8,8.3,1.2,10.5,0.6c2.2-0.7,0.5-6.4,0.5-6.4s4.4-8.2,8.8-3.5
		s4.4,14,4.4,14s2.7,5.9-7.2,9.4c-10,3.5-14.4,8.8-14.4,8.8h-11.1L153.6,760.4z"/>
	<path class="st8" d="M133.3,748.1c0.1-1,0.7-2,1.6-2.4c0.6-0.3,1.3-0.4,1.9-0.4c1.9-0.3,3.8-1,4.9-2.5c1.4-2,1.1-4.8,2.2-7.1
		c0.5-0.8,1.1-1.7,1.7-2.4c2.1-2.9,2.4-6.6,2.6-10.1c0.1-0.7,0-1.5-0.2-2.1c-0.3-0.6-0.8-1.2-1.3-1.7c-0.8-1-1.3-2.3-1.3-3.6
		c0.1-2.8-3.6-4.6-6.2-5.5c-2.7-0.9-5.4-1.1-8.2-1.1c-1.6,0-3.3,0-4.7,0.6c-0.8,0.4-1.7,0.8-2.4,1.5c-3.1,2.4-6,5.3-7,9
		c-0.4,1.7-0.6,3.4-0.5,5.1c-0.1,0.6,0,1.1,0.2,1.6c0.4,0.7,1.2,1.2,1.8,1.9c1.1,1.2,0.9,3.1,1,4.6c0.3,3.4,2.1,6.4,4.9,8.1
		c0.5,0.3,1.1,0.7,1.5,1.1c0.3,0.5,0.6,1,0.8,1.6C128,746.6,130.7,748,133.3,748.1z"/>
</g>
<circle class="st0" cx="1720" cy="251" r="200"/>
<circle class="st0" cx="1282" cy="216" r="97"/>
</svg>
