<?xml version="1.0" encoding="utf-8"?>
<!-- Generator: Adobe Illustrator 24.3.0, SVG Export Plug-In . SVG Version: 6.00 Build 0)  -->
<svg version="1.1" id="Layer_1" xmlns="http://www.w3.org/2000/svg" xmlns:xlink="http://www.w3.org/1999/xlink" x="0px" y="0px"
	 viewBox="0 0 1920 1080" style="enable-background:new 0 0 1920 1080;" xml:space="preserve">
<style type="text/css">
	.st0{fill:#FFFFFF;}
	.st1{fill:#D9745A;}
	.st2{fill:#F2F2F2;}
	.st3{fill:none;stroke:#3F3D56;stroke-miterlimit:10;}
	.st4{fill:#6C63FF;}
	.st5{fill:#A0616A;}
	.st6{fill:#55536E;}
	.st7{fill:#3F3D56;}
	.st8{fill:#2E4552;}
</style>
<path class="st0" d="M1372.4,743.1c0,0.1-0.1,0.2-0.1,0.3c-4,7.9-8,15.8-11.9,23.7c-0.7,1.4-1.3,2.8-2,4.1v-6.8
	c0.7-1.4,1.3-2.7,2-4.1c3-6.1,6-12.1,9.1-18.1c0-0.1,0.1-0.1,0.1-0.2C1370.6,740.7,1372.9,741.6,1372.4,743.1z"/>
<circle class="st0" cx="1224.4" cy="639.5" r="20"/>
<g>
	<path class="st1" d="M1623.4,541.8v50.2h-1.6v-0.5h-527.3v0.5h-1.6v-50.2c0-12,11.7-21.8,26-21.8h478.4
		C1611.8,520,1623.4,529.8,1623.4,541.8z"/>
	<path d="M1597.4,520H1119c-14.4,0-26,9.8-26,21.8v286.4c0,12,11.7,21.8,26,21.8h478.4c14.4,0,26-9.8,26-21.8V541.8
		C1623.4,529.8,1611.8,520,1597.4,520z M1621.8,828.2c0,11.3-10.9,20.4-24.4,20.5H1119c-13.5,0-24.4-9.2-24.4-20.5V541.8
		c0-11.3,10.9-20.4,24.4-20.5h478.4c13.5,0,24.4,9.2,24.4,20.5V828.2z"/>
	<ellipse class="st0" cx="1200.2" cy="556" rx="15.8" ry="13.2"/>
	<path class="st1" d="M1245.7,703.1H1152c-8.3,0-15-5.6-15-12.5v-37.1c0-6.9,6.7-12.5,15-12.5h93.8c8.3,0,15,5.6,15,12.5v37.1
		C1260.7,697.5,1254,703.1,1245.7,703.1z"/>
	<path class="st1" d="M1405.3,703.1h-93.8c-8.3,0-15-5.6-15-12.5v-37.1c0-6.9,6.7-12.5,15-12.5h93.8c8.3,0,15,5.6,15,12.5v37.1
		C1420.2,697.5,1413.5,703.1,1405.3,703.1z"/>
	<path class="st2" d="M1405.3,799h-93.8c-8.5,0-15.4-5.8-15.4-12.9V749c0-7.1,6.9-12.9,15.4-12.9h93.8c8.5,0,15.4,5.8,15.4,12.9
		v37.1C1420.7,793.2,1413.8,799,1405.3,799z"/>
	<path class="st2" d="M1245.4,799h-93.8c-8.5,0-15.4-5.8-15.4-12.9V749c0-7.1,6.9-12.9,15.4-12.9h93.8c8.5,0,15.4,5.8,15.4,12.9
		v37.1C1260.9,793.2,1253.9,799,1245.4,799z"/>
	<path class="st2" d="M1565.6,799.7h-93.8c-8.5,0-15.4-5.8-15.4-12.9v-37.1c0-7.1,6.9-12.9,15.4-12.9h93.8c8.5,0,15.4,5.8,15.4,12.9
		v37.1C1581,793.9,1574.1,799.7,1565.6,799.7z"/>
	<path class="st2" d="M1565.6,703.9h-93.8c-8.5,0-15.4-5.8-15.4-12.9v-37.1c0-7.1,6.9-12.9,15.4-12.9h93.8c8.5,0,15.4,5.8,15.4,12.9
		V691C1581,698.1,1574.1,703.9,1565.6,703.9z"/>
	<ellipse class="st0" cx="1198.8" cy="672" rx="25.4" ry="21.3"/>
	<path class="st1" d="M1196.3,680.2c-0.6,0-1.1-0.2-1.6-0.4l0,0l-6-3.8c-1.2-0.7-1.4-2.1-0.5-3.1s2.6-1.2,3.7-0.4l0,0l3.9,2.5
		l9.1-10c0.9-1,2.6-1.2,3.7-0.4c0,0,0,0,0,0l-0.1,0.1l0.1-0.1c1.2,0.7,1.4,2.1,0.5,3.1l-10.8,11.7
		C1197.9,679.8,1197.2,680.2,1196.3,680.2z"/>
	<ellipse class="st0" cx="1358.8" cy="671.7" rx="25.4" ry="21.3"/>
	<path class="st1" d="M1356.3,679.9c-0.6,0-1.1-0.2-1.6-0.4l0,0l-6-3.8c-1.2-0.7-1.4-2.1-0.5-3.1c0.9-1,2.6-1.2,3.7-0.4l0,0l3.9,2.5
		l9.1-10c0.9-1,2.6-1.2,3.7-0.4c0,0,0,0,0,0l-0.1,0.1l0.1-0.1c1.2,0.7,1.4,2.1,0.5,3.1l-10.8,11.7
		C1357.9,679.5,1357.1,679.9,1356.3,679.9z"/>
	<ellipse class="st0" cx="1519" cy="556.1" rx="15.8" ry="13.2"/>
</g>
<g>
	<ellipse class="st1" cx="1533.6" cy="1006.4" rx="118.6" ry="23.8"/>
	<ellipse class="st3" cx="1544.4" cy="999.4" rx="118.6" ry="23.8"/>
	<ellipse class="st4" cx="1542.5" cy="768.6" rx="23.5" ry="21"/>
	<ellipse class="st3" cx="1546.5" cy="765.1" rx="23.5" ry="21"/>
	<rect x="1512.4" y="804" class="st2" width="64.4" height="5.6"/>
	<rect x="1515.5" y="801.9" class="st3" width="64.4" height="5.6"/>
	<path class="st5" d="M1487.7,720.8l3.9-7.7c0,0,9.4-22.4,0.8-18.2c-8.6,4.2-11.8,15.4-11.8,15.4l-2.3,6.9L1487.7,720.8z"/>
	<path class="st5" d="M1595.1,837c0,0-13.4,23.1-17.3,23.8c-3.9,0.7-3.9-21-3.9-21s7.9-6.3,11-5.6
		C1588.1,834.9,1595.1,837,1595.1,837z"/>
	<path class="st6" d="M1575.6,982.7c0,0,7.1,3.6,3.9,11.2c-3.1,7.7-4.7,5.6-6.3,11.9c-1.6,6.3-15.7,5.6-16.5,2.8
		c-0.8-2.8-2.4-14,1.6-18.2C1562.2,986.1,1575.6,982.7,1575.6,982.7z"/>
	<path class="st6" d="M1505.8,982.7c0,0-7.1,3.6-3.9,11.2c3.1,7.7,4.7,5.6,6.3,11.9c1.6,6.3,15.7,5.6,16.5,2.8
		c0.8-2.8,2.4-14-1.6-18.2C1519.1,986.1,1505.8,982.7,1505.8,982.7z"/>
	<path class="st7" d="M1571.7,842.6c0,0,6.3,3.6,7.9,25.2c1.6,21.7-0.8,46.2-1.6,51.8c-0.9,5.6,0.8,14,2.4,18.2
		c1.6,4.2-3.9,36.4-3.9,36.4c2.4,4.4,2.4,9.6,0,14c-3.9,7.7-15.7,15.4-18.9,7.7c-0.1-2.7-1-5.3-2.4-7.7c-2.4-4.2,1.6-21,1.6-21
		s-3.1-26.6-2.4-33.6c0.8-7-9.4-48.3-11-55.3c-1.6-7-0.8-12.6-1.6-10.6c-0.8,2.1-14.9,60.2-14.9,60.2s1.6,37.1,0.8,42
		c-0.8,4.9,3.1,14.7,0.8,18.2c-2.4,3.6-7.1,16.1-15.7,8.4c-8.6-7.7-7.1-10.6-7.9-14c-0.8-3.6,0-7.7,0-13.3c0-5.7-6.3-37.1-3.1-42
		c3.1-4.9,1.6-11.2,0.8-22.4c-0.8-11.2-1.6-65.1,6.3-74.9C1516.8,820.2,1571.7,842.6,1571.7,842.6z"/>
	<ellipse class="st5" cx="1552.4" cy="694.6" rx="18.9" ry="16.8"/>
	<path class="st5" d="M1564.7,701.1c0,0-0.8,25.2,3.1,29.4c3.9,4.2-33.8-3.6-33.8-3.6s8.6-16.1,3.1-26.6
		C1531.7,690,1564.7,701.1,1564.7,701.1z"/>
	<path class="st8" d="M1571.7,727.8c0,0-1.6-5.6-11-7c-9.4-1.4-20.6-2.8-24.1,0c-3.5,2.8-5.1,6.3-7.3,6.3h-11l-17.3,27.3
		c0,0,8.6,9.1,6.3,25.9c-2.4,16.8-6.3,47.7-6.3,47.7c6.3,7.4,11.8,15.4,16.5,23.8c7.9,14,62,12.6,58.9-11.9c0,0-3.9-6.3-2.4-11.9
		c1.6-5.6,6.3-43.4,6.3-43.4l18-42.7C1598.4,741.8,1573.4,730.6,1571.7,727.8z"/>
	<path class="st8" d="M1592.9,741.1h5.5c0,0,3.1,16.1,2.4,25.9c-0.8,9.8-0.8,32.9-0.8,32.9s3.1,5.6,2.4,10.6
		c-0.8,5-2.4,18.2-2.4,18.2s-0.8,18.9-15.7,9.1c0,0-4.7-2.1-2.4-11.2c2.4-9.1-1.6-18.9-1.6-18.9s2.4-6.3,1.6-10.6
		c-0.8-4.2-3.9-17.6-3.9-17.6L1592.9,741.1z"/>
	<path class="st8" d="M1522.3,729.2l-3.9-2.1c0,0-5.5-2.1-13.4,0c-7.9,2.1-11.8,1.4-14.9,0.7c-3.1-0.8-0.8-7.7-0.8-7.7
		s-6.3-9.8-12.5-4.2c-6.3,5.6-6.3,16.8-6.3,16.8s-3.9,7,10.2,11.2c14.1,4.2,20.4,10.6,20.4,10.6h15.7L1522.3,729.2z"/>
	<path class="st7" d="M1551.2,714.6c-0.1-1.2-1-2.3-2.3-2.9c-0.9-0.3-1.8-0.4-2.7-0.4c-2.7-0.3-5.4-1.2-7-3c-2-2.4-1.5-5.8-3.1-8.4
		c-0.8-1-1.6-2-2.5-2.9c-2.9-3.4-3.3-7.9-3.7-12.1c-0.1-0.9,0-1.8,0.3-2.6c0.4-0.7,1.1-1.4,1.8-2c1.2-1.2,1.8-2.8,1.8-4.3
		c-0.1-3.3,5.1-5.4,8.8-6.6c3.8-1.1,7.7-1.3,11.7-1.3c2.3,0,4.6,0,6.7,0.7c1.2,0.4,2.4,1,3.3,1.8c4.4,2.9,8.5,6.3,9.9,10.8
		c0.5,2,0.9,4.1,0.8,6.1c0.1,0.7,0,1.3-0.3,1.9c-0.5,0.9-1.7,1.4-2.6,2.2c-1.5,1.4-1.3,3.7-1.4,5.6c-0.4,4.1-3,7.7-7,9.7
		c-0.8,0.3-1.6,0.9-2.2,1.3c-0.4,0.6-0.9,1.2-1.2,1.9C1558.8,712.7,1554.9,714.4,1551.2,714.6z"/>
	<ellipse class="st5" cx="1494.5" cy="693.9" rx="7.1" ry="6"/>
</g>
</svg>
