<?xml version="1.0" encoding="utf-8"?>
<!-- Generator: Adobe Illustrator 24.3.0, SVG Export Plug-In . SVG Version: 6.00 Build 0)  -->
<svg version="1.1" id="Layer_1" xmlns="http://www.w3.org/2000/svg" xmlns:xlink="http://www.w3.org/1999/xlink" x="0px" y="0px"
	 viewBox="0 0 1366 768" style="enable-background:new 0 0 1366 768;" xml:space="preserve">
<style type="text/css">
	.st0{opacity:0.2;fill:#2D4552;enable-background:new    ;}
	.st1{opacity:0.25;fill:#2D4552;enable-background:new    ;}
	.st2{opacity:0.4;fill:#2D4552;enable-background:new    ;}
	.st3{fill:#4A9B8F;}
	.st4{fill:#2D4552;}
	.st5{fill:#EAA56B;}
	.st6{fill:#E4C377;}
	.st7{fill:none;}
	.st8{font-family:'ArialRoundedMTBold';}
	.st9{font-size:556.3123px;}
</style>
<path class="st0" d="M298.7,590.3c-6.5,0-12.4-3.4-15.3-8.6c-48.1-87.6-216.7-58.3-218.4-58c-9.2,1.7-18.2-3.8-20-12.2
	c-1.8-8.4,4.1-16.6,13.5-18.2c1.9-0.3,48.5-8.6,102.8-4.4c62,4.8,108.9,24.6,137.5,57.1c28.6-32.7,75.6-52.2,137.5-57.1
	c54.2-4.3,100.9,4,102.8,4.4c9.2,1.7,15.3,9.9,13.5,18.2c-1.8,8.4-10.8,13.9-20,12.2c-1.7-0.3-170.3-29.6-218.3,58
	C311.1,586.9,305.1,590.3,298.7,590.3L298.7,590.3z"/>
<path class="st1" d="M314,581.6c48.1-87.6,216.7-58.3,218.3-58c9.2,1.7,18.2-3.7,20-12.2c1.8-8.4-4.1-16.6-13.5-18.2
	c-1.9-0.3-48.5-8.6-102.8-4.4c-62,4.8-108.9,24.6-137.5,57.1v44.3C305.1,590.3,311.1,586.9,314,581.6L314,581.6z"/>
<path class="st0" d="M561.5,587.6c-1.1-4.3-4.4-7.9-8.5-10c-6.5-3.1-155.2-73.4-254.1-21.2c-99.1-52.2-247.8,18.2-254.2,21.2
	c-4.4,2-7.4,5.7-8.5,10l-15.5,55.8l18.1,11.7l189.7-44.8c0,0,72.9,100.1,137.6,0l210.5,49.3l0.7-16.1L561.5,587.6z"/>
<path class="st2" d="M576.9,643.4l-15.4-55.8c-1.1-4.3-4.4-7.9-8.5-10c-6.5-3.1-155.2-73.4-254.1-21.2V667c34,0,64.3-19.1,79.7-45.6
	l190.6,47l8.5-24.8L576.9,643.4z"/>
<path class="st3" d="M573.3,674.1c-1.3,0-2.8-0.2-4.2-0.6l-190.8-44.1c-15.4,26.5-45.6,43.4-79.7,43.4c-34,0-64.3-16.9-79.7-43.4
	L28.3,673.7c-9.1,2-18.4-2.9-20.7-11.2c-2.3-8.3,3.2-16.7,12.2-18.9l205-47.4c8.7-2,17.8,2.5,20.5,10.3
	c7.4,21.2,28.7,35.5,53.2,35.5c24.5,0,46-14.3,53.2-35.5c2.8-7.9,11.8-12.5,20.5-10.3l205.2,47.4c9.1,2,14.7,10.6,12.2,18.9
	C588,669.5,580.9,674.1,573.3,674.1L573.3,674.1z"/>
<path class="st4" d="M378.4,629.7l190.8,44c1.3,0.3,2.8,0.6,4.2,0.6c7.6,0,14.6-4.7,16.5-11.7c2.3-8.3-3.2-16.7-12.2-18.9l-205-47.4
	c-8.7-2-17.8,2.5-20.5,10.3c-7.4,21.2-28.7,35.5-53.2,35.5v31.1C332.7,673.1,363,656.2,378.4,629.7L378.4,629.7z"/>
<path class="st3" d="M558.5,182.3h-14.8v-13.5c0-8.6-7.6-15.5-17.1-15.5s-17.1,7-17.1,15.5v13.5h-14.8c-9.5,0-17.1,7-17.1,15.5
	c0,8.6,7.6,15.5,17.1,15.5h14.8v13.5c0,8.6,7.6,15.5,17.1,15.5s17.1-7,17.1-15.5v-13.5h14.8c9.5,0,17.1-7,17.1-15.5
	C575.6,189.2,567.9,182.3,558.5,182.3z"/>
<path class="st5" d="M389.9,449.4c-6.7,0-13.1-3.6-15.9-9.5c-3.6-7.9,0.5-16.9,9.2-20.3l109.4-41.4c8.6-3.4,18.7,0.4,22.3,8.4
	c3.6,7.9-0.5,16.9-9.2,20.3l-109.4,41.4C394.3,449.1,392.1,449.4,389.9,449.4z"/>
<path class="st5" d="M335.2,432.9c-1.2,0-2.7-0.1-4-0.4c-9.2-2-14.8-10.3-12.6-18.7l45.6-174c2.2-8.4,11.4-13.5,20.6-11.4
	s14.8,10.3,12.6,18.7l-45.6,174C350,428.1,343,432.9,335.2,432.9z"/>
<path class="st6" d="M262.2,432.9c-8.4,0-15.8-5.6-16.9-13.4l-18.2-116c-1.3-8.5,5.1-16.4,14.4-17.6s17.9,4.7,19.4,13.1l18.2,116
	c1.3,8.5-5.1,16.4-14.4,17.6C263.8,432.9,263.1,432.9,262.2,432.9z"/>
<path class="st6" d="M189.3,449.4c-4.4,0-8.7-1.6-12.1-4.6L67.8,345.4c-6.7-6.1-6.7-15.9,0-22c6.7-6.1,17.6-6.1,24.1,0l109.4,99.5
	c6.7,6.1,6.7,15.9,0,22C198.1,447.8,193.8,449.4,189.3,449.4L189.3,449.4z"/>
<ellipse class="st3" cx="23.6" cy="400.7" rx="17.3" ry="16.5"/>
<ellipse class="st5" cx="298.7" cy="210.2" rx="17.1" ry="15.5"/>
<ellipse class="st4" cx="453.7" cy="301.4" rx="17.1" ry="15.5"/>
<path class="st6" d="M315.8,210.2c0-8.6-7.6-15.5-17.1-15.5v31.1C308.2,225.8,315.8,218.9,315.8,210.2z"/>
<path class="st4" d="M61.7,242.3c-29.5,0-53.6-21.9-53.6-48.7s24-48.6,53.6-48.6s53.6,21.9,53.6,48.7S91.3,242.3,61.7,242.3z"/>
<rect x="448.4" y="607" class="st7" width="508.6" height="185"/>
<text transform="matrix(0.6864 0 0 1 584.001 674.6533)" class="st4 st8 st9">ETB</text>
</svg>
