<?xml version="1.0" encoding="utf-8"?>
<!-- Generator: Adobe Illustrator 24.3.0, SVG Export Plug-In . SVG Version: 6.00 Build 0)  -->
<svg version="1.1" id="Capa_1" xmlns="http://www.w3.org/2000/svg" xmlns:xlink="http://www.w3.org/1999/xlink" x="0px" y="0px"
	 viewBox="0 0 512 512" style="enable-background:new 0 0 512 512;" xml:space="preserve">
<style type="text/css">
	.st0{opacity:0.2;fill:#2D4552;enable-background:new    ;}
	.st1{opacity:0.25;fill:#2D4552;enable-background:new    ;}
	.st2{opacity:0.4;fill:#2D4552;enable-background:new    ;}
	.st3{fill:#4A9B8F;}
	.st4{fill:#2D4552;}
	.st5{fill:#EAA56B;}
	.st6{fill:#E4C377;}
</style>
<path class="st0" d="M256,431.4c-5.7,0-10.9-3.2-13.4-8.3c-42.3-84-190.2-55.9-191.7-55.7c-8.1,1.6-16-3.7-17.6-11.7
	c-1.6-8.1,3.6-15.9,11.8-17.5c1.7-0.3,42.6-8.3,90.3-4.2c54.4,4.6,95.6,23.6,120.7,54.8c25.1-31.4,66.3-50.1,120.7-54.8
	c47.6-4.1,88.5,3.9,90.3,4.2c8.1,1.6,13.4,9.5,11.8,17.5c-1.6,8.1-9.5,13.4-17.6,11.7c-1.5-0.3-149.4-28.4-191.6,55.7
	C266.9,428.2,261.6,431.4,256,431.4L256,431.4z"/>
<path class="st1" d="M269.4,423.1c42.3-84,190.2-55.9,191.6-55.7c8.1,1.6,16-3.6,17.6-11.7c1.6-8.1-3.6-15.9-11.8-17.5
	c-1.7-0.3-42.6-8.3-90.3-4.2c-54.4,4.6-95.6,23.6-120.7,54.8v42.6C261.6,431.4,266.9,428.2,269.4,423.1L269.4,423.1z"/>
<path class="st0" d="M486.6,428.8c-1-4.1-3.8-7.5-7.5-9.6c-5.7-3-136.2-70.5-223-20.4c-87-50.1-217.4,17.5-223.1,20.4
	c-3.8,1.9-6.5,5.5-7.5,9.6l-13.6,53.5l15.9,11.2l166.5-43c0,0,64,96.1,120.8,0l184.8,47.3l0.6-15.4L486.6,428.8z"/>
<path class="st2" d="M500.1,482.4l-13.5-53.5c-1-4.1-3.8-7.5-7.5-9.6c-5.7-3-136.2-70.5-223-20.4V505c29.8,0,56.4-18.3,69.9-43.7
	l167.3,45.1l7.5-23.8L500.1,482.4z"/>
<path class="st3" d="M497,511.9c-1.2,0-2.4-0.2-3.7-0.5L325.8,469c-13.5,25.4-40,41.7-69.9,41.7c-29.8,0-56.4-16.3-69.9-41.7
	L18.7,511.5c-8,1.9-16.2-2.8-18.2-10.8c-2-8,2.8-16.1,10.7-18.1l179.9-45.5c7.7-1.9,15.6,2.4,18,9.9c6.5,20.4,25.2,34,46.7,34
	s40.3-13.7,46.7-34c2.4-7.5,10.3-12,18-9.9l180.1,45.5c8,1.9,12.9,10.1,10.7,18.1C509.8,507.5,503.7,511.9,497,511.9L497,511.9z"/>
<path class="st4" d="M325.9,469.2l167.4,42.2c1.2,0.3,2.4,0.5,3.7,0.5c6.7,0,12.8-4.5,14.5-11.2c2-8-2.8-16.1-10.7-18.1l-179.9-45.5
	c-7.7-1.9-15.6,2.4-18,9.9c-6.5,20.4-25.2,34-46.7,34V511C285.8,510.9,312.4,494.7,325.9,469.2L325.9,469.2z"/>
<path class="st3" d="M484,39.8h-13V26.8c0-8.3-6.7-14.9-15-14.9s-15,6.7-15,14.9v12.9h-13c-8.3,0-15,6.7-15,14.9
	c0,8.3,6.7,14.9,15,14.9h13v12.9c0,8.3,6.7,14.9,15,14.9s15-6.7,15-14.9V69.5h13c8.3,0,15-6.7,15-14.9S492.3,39.8,484,39.8z"/>
<path class="st5" d="M336,296.2c-5.9,0-11.5-3.4-13.9-9.2c-3.2-7.5,0.4-16.3,8.1-19.5l96-39.8c7.6-3.2,16.4,0.4,19.6,8.1
	c3.2,7.5-0.4,16.3-8.1,19.5l-96,39.8C339.9,295.9,338,296.2,336,296.2z"/>
<path class="st5" d="M288,280.4c-1.1,0-2.3-0.1-3.5-0.4c-8.1-1.9-13-9.9-11.1-18l40-167c1.9-8.1,10-12.9,18.1-11s13,9.9,11.1,18
	l-40,167C301,275.7,294.8,280.4,288,280.4z"/>
<path class="st6" d="M224,280.4c-7.3,0-13.8-5.4-14.8-12.8l-16-111.3c-1.2-8.2,4.5-15.7,12.7-16.9c8.2-1.2,15.8,4.5,17,12.6
	l16,111.3c1.2,8.2-4.5,15.7-12.7,16.9C225.3,280.4,224.7,280.4,224,280.4z"/>
<path class="st6" d="M160,296.2c-3.8,0-7.7-1.5-10.6-4.4l-96-95.5c-5.9-5.8-5.9-15.3,0-21.1c5.9-5.8,15.4-5.8,21.2,0l96,95.5
	c5.9,5.8,5.9,15.3,0,21.1C167.7,294.7,163.9,296.2,160,296.2L160,296.2z"/>
<ellipse class="st3" cx="24" cy="273.4" rx="15" ry="14.9"/>
<ellipse class="st5" cx="256" cy="66.6" rx="15" ry="14.9"/>
<ellipse class="st4" cx="392" cy="154.1" rx="15" ry="14.9"/>
<path class="st6" d="M271,66.6c0-8.3-6.7-14.9-15-14.9v29.8C264.3,81.6,271,74.9,271,66.6z"/>
<path class="st4" d="M48,97.4c-25.9,0-47-21-47-46.8S22.1,4,48,4s47,21,47,46.8S74,97.4,48,97.4z"/>
</svg>
