<?xml version="1.0" encoding="utf-8"?>
<!-- Generator: Adobe Illustrator 24.3.0, SVG Export Plug-In . SVG Version: 6.00 Build 0)  -->
<svg version="1.1" id="Layer_1" xmlns="http://www.w3.org/2000/svg" xmlns:xlink="http://www.w3.org/1999/xlink" x="0px" y="0px"
	 viewBox="0 0 595.3 841.9" style="enable-background:new 0 0 595.3 841.9;" xml:space="preserve">
<style type="text/css">
	.st0{opacity:0.2;fill:#2D4552;}
	.st1{opacity:0.25;fill:#2D4552;}
	.st2{opacity:0.4;fill:#2D4552;}
	.st3{opacity:0.7;fill:#D97459;}
	.st4{fill:#D97459;}
	.st5{fill:#4A9B8F;}
	.st6{fill:#EAA56B;}
	.st7{fill:#E4C377;}
	.st8{fill:#2D4552;}
	.st9{fill:none;}
	.st10{font-family:'ArialRoundedMTBold';}
	.st11{font-size:200px;}
</style>
<path class="st0" d="M297.3,490.5c-5.7,0-10.9-3.2-13.4-8.3c-42.3-84.6-190.2-56.3-191.7-56c-8.1,1.6-16-3.7-17.6-11.8
	c-1.6-8.1,3.6-16,11.8-17.6c1.7-0.3,42.6-8.4,90.2-4.2c54.4,4.7,95.6,23.7,120.7,55.2c25.1-31.5,66.3-50.4,120.7-55.2
	c47.6-4.1,88.5,3.9,90.2,4.2c8.1,1.6,13.4,9.5,11.8,17.6c-1.6,8.1-9.5,13.4-17.6,11.8c-1.5-0.3-149.4-28.6-191.6,56
	C308.2,487.3,303,490.5,297.3,490.5L297.3,490.5z"/>
<path class="st1" d="M310.7,482.2c42.3-84.6,190.2-56.3,191.6-56c8.1,1.6,16-3.6,17.6-11.8c1.6-8.1-3.6-16-11.8-17.6
	c-1.7-0.3-42.6-8.4-90.2-4.2c-54.4,4.7-95.6,23.7-120.7,55.2v42.8C303,490.5,308.2,487.3,310.7,482.2L310.7,482.2z"/>
<path class="st0" d="M527.9,487.9c-1-4.1-3.8-7.6-7.5-9.6c-5.7-3-136.2-70.9-223-20.5c-86.8-50.4-217.3,17.5-223,20.5
	c-3.8,2-6.5,5.5-7.5,9.6l-13.5,53.9l15.9,11.3l166.5-43.2c0,0,64,96.7,120.8,0l184.8,47.6L542,542L527.9,487.9z"/>
<path class="st2" d="M541.4,541.8l-13.5-53.9c-1-4.1-3.8-7.6-7.5-9.6c-5.7-3-136.2-70.9-223-20.5v106.8c29.8,0,56.4-18.4,69.9-44
	L534.6,566L542,542L541.4,541.8z"/>
<path class="st3" d="M538.3,571.5c-1.2,0-2.5-0.2-3.7-0.5l-167.4-42.6c-13.5,25.6-40,42-69.9,42c-29.8,0-56.4-16.4-69.9-42L60,571
	c-8,2-16.2-2.8-18.2-10.8c-2-8,2.8-16.2,10.8-18.2l179.9-45.7c7.7-2,15.6,2.4,18,10c6.5,20.5,25.2,34.2,46.7,34.2
	c21.5,0,40.3-13.8,46.7-34.2c2.4-7.6,10.3-12,18-10L542,542c8,2,12.9,10.2,10.8,18.2C551.1,567,545,571.5,538.3,571.5L538.3,571.5z"
	/>
<path class="st4" d="M367.2,528.5L534.6,571c1.2,0.3,2.5,0.5,3.7,0.5c6.7,0,12.8-4.5,14.5-11.3c2-8-2.8-16.2-10.8-18.2l-179.9-45.7
	c-7.7-2-15.6,2.4-18,10c-6.5,20.5-25.2,34.2-46.7,34.2v30C327.1,570.5,353.7,554.1,367.2,528.5L367.2,528.5z"/>
<path class="st5" d="M525.3,96.5h-13v-13c0-8.3-6.7-15-15-15c-8.3,0-15,6.7-15,15v13h-13c-8.3,0-15,6.7-15,15s6.7,15,15,15h13v13
	c0,8.3,6.7,15,15,15c8.3,0,15-6.7,15-15v-13h13c8.3,0,15-6.7,15-15S533.6,96.5,525.3,96.5z"/>
<path class="st6" d="M377.3,354.5c-5.9,0-11.5-3.5-13.9-9.2c-3.2-7.6,0.4-16.4,8.1-19.6l96-40c7.6-3.2,16.4,0.4,19.6,8.1
	c3.2,7.6-0.4,16.4-8.1,19.6l-96,40C381.2,354.1,379.3,354.5,377.3,354.5z"/>
<path class="st6" d="M329.3,338.5c-1.1,0-2.3-0.1-3.5-0.4c-8.1-1.9-13-10-11.1-18.1l40-168c1.9-8.1,10-13,18.1-11.1
	c8.1,1.9,13,10,11.1,18.1l-40,168C342.3,333.9,336.1,338.5,329.3,338.5z"/>
<path class="st7" d="M265.3,338.5c-7.3,0-13.8-5.4-14.8-12.9l-16-112c-1.2-8.2,4.5-15.8,12.7-17c8.2-1.2,15.8,4.5,17,12.7l16,112
	c1.2,8.2-4.5,15.8-12.7,17C266.7,338.5,266,338.5,265.3,338.5z"/>
<path class="st7" d="M201.3,354.5c-3.8,0-7.7-1.5-10.6-4.4l-96-96c-5.9-5.9-5.9-15.4,0-21.2c5.9-5.9,15.4-5.9,21.2,0l96,96
	c5.9,5.9,5.9,15.4,0,21.2C209,353,205.2,354.5,201.3,354.5L201.3,354.5z"/>
<circle class="st5" cx="65.3" cy="331.5" r="15"/>
<circle class="st6" cx="297.3" cy="123.5" r="15"/>
<circle class="st8" cx="433.3" cy="211.5" r="15"/>
<path class="st7" d="M312.3,123.5c0-8.3-6.7-15-15-15v30C305.6,138.5,312.3,131.8,312.3,123.5z"/>
<path class="st4" d="M89.3,154.5c-25.9,0-47-21.1-47-47s21.1-47,47-47s47,21.1,47,47S115.3,154.5,89.3,154.5z"/>
<rect x="81.6" y="631.6" class="st9" width="446.4" height="178.6"/>
<text transform="matrix(1 0 0 1 81.6189 777.2136)" class="st8 st10 st11">ETB</text>
</svg>
