<?xml version="1.0" encoding="utf-8"?>
<!-- Generator: Adobe Illustrator 24.3.0, SVG Export Plug-In . SVG Version: 6.00 Build 0)  -->
<svg version="1.1" id="_x31__x2C_5" xmlns="http://www.w3.org/2000/svg" xmlns:xlink="http://www.w3.org/1999/xlink" x="0px"
	 y="0px" viewBox="0 0 512 512" style="enable-background:new 0 0 512 512;" xml:space="preserve">
<style type="text/css">
	.st0{fill:#D9745A;}
</style>
<g>
	<g>
		<path class="st0" d="M261.3,256c-8.8,0-16-7.2-16-16v-16H96v16c0,8.8-7.2,16-16,16s-16-7.2-16-16v-32c0-8.8,7.2-16,16-16h181.3
			c8.8,0,16,7.2,16,16v32C277.3,248.8,270.2,256,261.3,256z"/>
	</g>
	<g>
		<path class="st0" d="M170.7,400c-8.8,0-16-7.2-16-16V213.3c0-8.8,7.2-16,16-16s16,7.2,16,16V384C186.7,392.8,179.5,400,170.7,400z
			"/>
	</g>
	<g>
		<path class="st0" d="M197.3,405.3H144c-8.8,0-16-7.2-16-16s7.2-16,16-16h53.3c8.8,0,16,7.2,16,16S206.2,405.3,197.3,405.3z"/>
	</g>
	<g>
		<path class="st0" d="M432,224h-96c-8.8,0-16-7.2-16-16s7.2-16,16-16h96c8.8,0,16,7.2,16,16S440.8,224,432,224z"/>
	</g>
	<g>
		<path class="st0" d="M432,309.3h-96c-8.8,0-16-7.2-16-16s7.2-16,16-16h96c8.8,0,16,7.2,16,16S440.8,309.3,432,309.3z"/>
	</g>
	<g>
		<path class="st0" d="M432,394.7h-96c-8.8,0-16-7.2-16-16s7.2-16,16-16h96c8.8,0,16,7.2,16,16S440.8,394.7,432,394.7z"/>
	</g>
	<path class="st0" d="M453.3,490.7H58.7C26.3,490.7,0,464.4,0,432V80c0-32.4,26.3-58.7,58.7-58.7h394.7c32.4,0,58.7,26.3,58.7,58.7
		v352C512,464.4,485.7,490.7,453.3,490.7z M58.7,53.3C44,53.3,32,65.3,32,80v352c0,14.7,12,26.7,26.7,26.7h394.7
		c14.7,0,26.7-12,26.7-26.7V80c0-14.7-12-26.7-26.7-26.7H58.7z"/>
	<g>
		<path class="st0" d="M496,128H16c-8.8,0-16-7.2-16-16s7.2-16,16-16h480c8.8,0,16,7.2,16,16S504.8,128,496,128z"/>
	</g>
</g>
</svg>
