<?xml version="1.0" encoding="utf-8"?>
<!-- Generator: Adobe Illustrator 24.3.0, SVG Export Plug-In . SVG Version: 6.00 Build 0)  -->
<svg version="1.1" id="Capa_1" xmlns="http://www.w3.org/2000/svg" xmlns:xlink="http://www.w3.org/1999/xlink" x="0px" y="0px"
	 viewBox="0 0 512 512" style="enable-background:new 0 0 512 512;" xml:space="preserve">
<style type="text/css">
	.st0{fill:#A4C2F7;}
	.st1{fill:#E3E7F2;}
	.st2{fill:#FFFFFF;}
	.st3{fill:#7FACFA;}
	.st4{fill:#2E4552;}
</style>
<circle class="st0" cx="256" cy="256" r="246.7"/>
<ellipse class="st1" cx="242" cy="256" rx="232.7" ry="246.7"/>
<path class="st2" d="M256,502.7c2.4,0,4.8-0.1,7.2-0.2C137.8,498.7,37.2,389.8,37.2,256S137.8,13.3,263.2,9.5
	c-2.4-0.1-4.8-0.2-7.2-0.2C119.8,9.3,9.3,119.8,9.3,256S119.8,502.7,256,502.7L256,502.7z"/>
<path class="st3" d="M182.6,396.1L109,436.3c-4.2,2.4-8.2,5.2-11.8,8.4c91.4,77,224.9,77.4,316.8,0.8c-4-3.4-8.3-6.3-13-8.7
	l-78.8-39.4c-10.2-5.1-16.6-15.5-16.6-26.9v-30.9c2.6-3.1,5.1-6.3,7.5-9.6c10.6-15.1,18.9-31.8,24.5-49.4
	c10.4-3.2,17.5-12.7,17.6-23.6v-33c0-7-3-13.6-8.3-18.3V158c0,0,9.8-74.3-90.8-74.3S165.2,158,165.2,158v47.7
	c-5.2,4.6-8.2,11.3-8.3,18.3v33c0,8.4,4.3,16.2,11.4,20.8c5.5,22.5,15.6,43.5,29.8,61.7v30.2C198.2,380.7,192.2,390.9,182.6,396.1z"
	/>
<path class="st0" d="M396.6,436.2l-103.7-39.4c-10.2-5.1-16.6-15.5-16.6-26.9v-30.9c2.6-3.1,5.1-6.3,7.5-9.6
	c10.6-15.1,18.9-31.8,24.5-49.4c10.4-3.2,17.5-12.7,17.6-23.6v-33c0-7-3-13.6-8.3-18.3v-47.7c0,0,9.8-74.3-90.8-74.3
	c-6,0-11.6,0.3-16.8,0.8c0.6,4.8-2.1,9.5-6.6,11.3c-12,4.9-23.7,10.8-34.9,17.5c4.6,0.8,7.9,4.8,7.9,9.5c2,34.3-9.8,74.5-20.4,109.5
	c0.3,13.8,0.6,27.6,1,41.4c1,3.2,2,6.4,3,9.6c1.9,1.2,3.4,2.9,4.3,5c4.3,10.1,9,20.5,13.1,31.1c5.6-1.6,11.5,1.3,13.7,6.7
	c3.6,10.2,5.9,20.9,6.8,31.8c0.4,3.3-1.2,6.4-4,8.1c-5.2,17.9-13.9,34.6-25.7,49.1c-2.6,2.5-6.2,3.5-9.7,2.5c-3.4-0.9-6.2-3.6-7.2-7
	c-0.5-1.7-0.9-3.5-1.2-5.3c-6.9,4.1-14.3,7.7-22.4,12.2c-4.3,2.4-37,17.4-37.8,21.1c-4.6,21.1,69.2,47.2,106.3,62
	c10.1,1.3,20.3,2,30.4,2.1c60.1,0,140-21.5,182.8-57.2C405.6,441.5,401.3,438.5,396.6,436.2L396.6,436.2z"/>
<g>
	<path class="st4" d="M256,512C114.6,512,0,397.4,0,256S114.6,0,256,0s256,114.6,256,256C511.8,397.3,397.3,511.8,256,512z
		 M256,18.6C124.9,18.6,18.6,124.9,18.6,256S124.9,493.4,256,493.4S493.4,387.1,493.4,256C493.2,125,387,18.8,256,18.6z"/>
	<path class="st4" d="M256,512c-60.3,0-118.7-21.4-164.9-60.2c-2.1-1.8-3.3-4.3-3.3-7c0-2.7,1.1-5.3,3.2-7.1
		c4.1-3.7,8.7-6.9,13.5-9.6l73.6-40.1c6.7-3.6,10.8-10.6,10.8-18.2v-26.9c-13.3-17.8-23.1-38-28.8-59.5
		c-7.9-6.4-12.5-16.1-12.5-26.3v-33c0-8.1,3-15.9,8.3-22.1v-43.4c-1.6-19.8,4.7-39.4,17.5-54.6c17.2-19.6,44.9-29.5,82.5-29.5
		s65.4,9.9,82.5,29.5c12.8,15.2,19.1,34.8,17.5,54.6V202c5.3,6.1,8.2,14,8.3,22.1v33c0,13.1-7.5,25-19.4,30.6
		c-5.8,17-14,33-24.4,47.7c-2,2.8-3.9,5.4-5.7,7.6v27.5c0,7.9,4.4,15.1,11.5,18.6l78.8,39.4c5.3,2.7,10.3,6,14.8,9.9
		c2.1,1.8,3.3,4.4,3.3,7.1c0,2.8-1.2,5.4-3.3,7.1C373.9,491,315.9,512,256,512z M112.4,445c84.4,64.2,201.1,64.5,285.9,0.9
		c-0.5-0.3-1-0.6-1.6-0.8L318,405.7c-13.4-6.6-21.8-20.3-21.8-35.2v-30.9c0-2.3,0.8-4.4,2.3-6.1c2.4-2.8,4.7-5.8,6.9-8.8
		c10.1-14.3,17.9-30.1,23.2-46.8c0.9-2.9,3.2-5.1,6.1-6c6.5-2,10.9-7.9,11-14.7v-33c0-4.4-1.9-8.5-5.2-11.4c-2-1.8-3.1-4.3-3.1-6.9
		V158c0-0.4,0-0.8,0.1-1.2c1.1-14.8-3.6-29.4-13.2-40.8c-13.5-15.2-36.5-23-68.4-23c-32,0-55.1,7.8-68.5,23.1
		c-9.5,11.3-14.2,25.9-13,40.6c0.1,0.4,0.1,0.8,0.1,1.2v47.7c0,2.6-1.1,5.1-3.1,6.9c-3.3,2.9-5.2,7-5.2,11.4v33
		c0,5.3,2.7,10.1,7.2,13c2,1.3,3.5,3.4,4,5.7c5.2,21,14.7,40.7,27.9,57.9c1.4,1.7,2.1,3.8,2.2,6v30.2c0,14.4-7.9,27.7-20.5,34.6l0,0
		l-73.6,40.1C113.1,444.6,112.8,444.8,112.4,445z"/>
</g>
</svg>
