<?xml version="1.0" encoding="utf-8"?>
<!-- Generator: Adobe Illustrator 24.3.0, SVG Export Plug-In . SVG Version: 6.00 Build 0)  -->
<svg version="1.1" id="Layer_1" xmlns="http://www.w3.org/2000/svg" xmlns:xlink="http://www.w3.org/1999/xlink" x="0px" y="0px"
	 viewBox="0 0 512 512" style="enable-background:new 0 0 512 512;" xml:space="preserve">
<style type="text/css">
	.st0{fill:#D9745A;}
</style>
<g id="Outline">
	<path class="st0" d="M422.9,296.5l-72-9c-4-0.5-7-3.9-7-7.9v-17.2c18.7-16.5,30.1-39.7,31.8-64.5l1.7-5.9
		c17.6-0.8,31.3-15.8,30.5-33.4c-0.5-10.2-5.7-19.5-14.2-25.2c3.1-15.4,2.6-31.2-1.5-46.3c-4.6-17.3-14.2-32.9-27.5-44.9
		c-2-1.8-3.7-3.2-5.3-4.4c-28.7-22.3-67.1-27.9-101-14.6l-28,11c-29.4,0.9-43.9,28.1-45.3,55c-1,18.1,2.4,35.6,6.1,50.7
		c-11.2,13.7-9.2,33.8,4.5,45c2.9,2.4,6.3,4.3,9.8,5.5c3.5,10,8,18.3,15.1,30.5c5.2,16.1,14.7,30.5,27.4,41.6v17.2
		c0,3.7-2.5,7-6.2,7.8c-0.3,0-0.6,0.1-0.8,0.1h0c-2.1,0.3-22.1,2.8-32.4,4.1c-9.1-18.3-18.6-36-28.3-52.6l-12.2-29.2
		c-1.7-4-6.3-6-10.3-4.3l-5.8,2.3l-13.1-87.9c-0.4-2.4-1.8-4.5-3.9-5.7l-70.4-41c-3.8-2.2-8.7-0.9-10.9,2.9c-0.4,0.6-0.6,1.3-0.8,2
		l-20.6,77.4c-0.6,2.4-0.1,4.9,1.3,6.9l53.8,71.4l-5.5,2.2c-4.1,1.6-6.1,6.3-4.5,10.4c0,0,0,0.1,0.1,0.1l12.2,29
		c9.3,34.8,19.2,66.2,30.3,95.9V464c0,17.7,14.3,32,32,32h120c4.4,0,8-3.6,8-8c0-0.4,0-0.7-0.1-1.1c-0.8-5-1.9-10-3.3-14.9l19.3-6.1
		l90,28.7c3.1,1,6.4,1.5,9.7,1.5H440c17.7,0,32-14.3,32-32V352.1C472,323.8,450.9,300,422.9,296.5z M456,407.2l-83.7-8.4l44.9-22.5
		l38.7,6.5V407.2z M456,352.1v14.5l-38.7-6.4c-1.7-0.3-3.4,0-4.9,0.7l-46.7,23.3l-69.7,7l-47-4.7c-1.3-3.6-2.7-7.3-4-10.8
		c-8.7-23.3-18.4-46.4-29-68.9c7.6-1,17.3-2.2,22.8-2.9c20.6,32.3,63.6,41.8,95.9,21.2c8.4-5.4,15.6-12.5,21-20.9l65.2,8.2
		C441,314.9,456,331.9,456,352.1L456,352.1z M264,279.6v-6.5c9.3,4.5,19.5,6.9,29.8,6.9h4.3c10.3,0,20.5-2.4,29.8-6.9v6.5
		c0,8.2,4.2,15.9,11.2,20.3c-18.4,23.1-52,26.9-75.1,8.5c-3.6-2.8-6.7-6.1-9.5-9.8C260.5,294.1,264,287.1,264,279.6z M306.9,136
		h-21.7c-3.2-5-8.8-8-14.7-8h-32.7c6.8-14,10.3-29.3,10.3-44.8V72h8.7c13.1,0,23.6,9.6,34.7,19.7c10.9,10,22.2,20.3,36.6,20.3h32
		c0,4.8,0,11,0,16.1c-0.5,0-1.1-0.1-1.6-0.1h-36.8C315.7,128,310.1,131,306.9,136z M232,145.6c0-0.9,0.7-1.6,1.6-1.6h0h36.8
		c0.9,0,1.6,0.7,1.6,1.6v0v12.8c0,0.9-0.7,1.6-1.6,1.6l0,0h-36.8c-0.9,0-1.6-0.7-1.6-1.6v0V145.6z M320,145.6c0-0.9,0.7-1.6,1.6-1.6
		l0,0h36.8c0.9,0,1.6,0.7,1.6,1.6v0v12.8c0,0.9-0.7,1.6-1.6,1.6l0,0h-36.8c-0.9,0-1.6-0.7-1.6-1.6v0V145.6z M376,176v-32
		c8.8,0,16,7.2,16,16S384.8,176,376,176z M201.1,89.9c0.9-18.4,9.6-39.8,30.9-39.8c1,0,2-0.2,2.9-0.6L264.3,38
		c28.6-11.2,61.1-6.5,85.3,12.4l0.1,0.1c1.3,1,2.7,2.2,4.4,3.7c20,17.9,29.1,46.3,24.3,74c-0.8-0.1-1.6-0.1-2.4-0.1c0-10,0-24,0-24
		c0-4.4-3.6-8-8-8h-40c-8.2,0-16.7-7.8-25.8-16.1C289.9,68.7,276,56,256.7,56H240c-4.4,0-8,3.6-8,8v19.2c0,15.8-4.3,31.3-12.4,44.8
		H216c-3.6,0-7.2,0.6-10.7,1.8C202.5,117.4,200.4,103.7,201.1,89.9z M216,144v32c-8.8,0-16-7.2-16-16S207.2,144,216,144z M232,191.3
		v-15.4c0.5,0,38.4,0.1,38.4,0.1c9.7,0,17.6-7.9,17.6-17.6V152h16v6.4c0,9.7,7.9,17.6,17.6,17.6c0,0,37.9,0,38.4-0.1
		c0,0,0,18.3-0.1,19.8c0,0,0,0.1,0,0.1c-1.2,21.8-11.4,42.1-28.2,56.1c-9.4,7.8-21.2,12.1-33.5,12.1h-4.3
		c-12.2,0-24.1-4.3-33.5-12.1C242.4,236.9,232,214.7,232,191.3z M230,381.3c0.4,1.1,0.8,2.3,1.3,3.4l-5-0.5l-46.7-23.3
		c-1.5-0.8-3.2-1-4.9-0.7l-5,0.8c-4.4-10.8-8.7-22.2-12.9-33.8l-15.1,5.4c3.8,10.7,7.7,21.1,11.8,31.1l-18.1,3
		c-10.4-27.7-19.7-56.9-28.5-89l62.8-25.1c9.4,16.2,18.5,33.5,27.1,51.3C209,328.9,220.2,355,230,381.3z M162.6,238.1l-61,24.4
		l-6.2-14.8l61-24.4L162.6,238.1z M48.7,155.7l13.6-51L85.1,159c-0.9,1.1-1.6,2.4-2.2,3.7c-1.7,3.9-1.6,8.3,0,12.2
		c3.5,8.1,12.8,12,21,8.7c4-1.6,7.2-4.7,8.9-8.7c1.7-3.9,1.7-8.3,0-12.2c-2.3-5.3-7.2-9-12.9-9.7L77.3,99l46.4,27l13.1,87.9
		l-33.9,13.6L48.7,155.7z M251.5,480l9.9-3.2c0.3,1.1,0.6,2.1,0.8,3.2H251.5z M264.4,459.1l-63.2,20.1c-1.6,0.5-3.2,0.8-4.9,0.8H152
		c-8.8,0-16-7.2-16-16v-18.6l32.8-13.1l53.2,10l47.5,15.1L264.4,459.1z M456,464c0,8.8-7.2,16-16,16h-44.3c-1.6,0-3.3-0.3-4.9-0.8
		l-164.4-52.3c-0.3-0.1-0.6-0.2-0.9-0.2l-56-10.5c-1.5-0.3-3-0.1-4.5,0.4l-29,11.6v-45.4l38.7-6.5l45.7,22.8
		c0.9,0.4,1.8,0.7,2.8,0.8L456,423.2V464z"/>
	<path class="st0" d="M287.7,223.8c2.1-0.1,14.4-0.1,16.5,0c2.4,0.1,4.8,0.2,7.2,0.2c5.5,0,11-0.3,16.5-1.1l1.2-0.2l-2.4-15.8
		l-1.2,0.2c-6.8,0.9-13.7,1.1-20.5,0.7c-2.3-0.1-15.8-0.1-18.1,0c-6.8,0.4-13.7,0.1-20.5-0.7l-1.2-0.2l-2.4,15.8l1.2,0.2
		C271.9,224,279.8,224.3,287.7,223.8z"/>
	<path class="st0" d="M131.5,301.7c1.6,5.1,3.3,10.3,5,15.4l15.2-5.1c-1.7-5-3.3-10.1-4.9-15.2L131.5,301.7z"/>
</g>
</svg>
