<?xml version="1.0" encoding="utf-8"?>
<!-- Generator: Adobe Illustrator 24.3.0, SVG Export Plug-In . SVG Version: 6.00 Build 0)  -->
<svg version="1.1" id="Layer_1" xmlns="http://www.w3.org/2000/svg" xmlns:xlink="http://www.w3.org/1999/xlink" x="0px" y="0px"
	 viewBox="0 0 512 512" style="enable-background:new 0 0 512 512;" xml:space="preserve">
<style type="text/css">
	.st0{fill:#D9745A;}
</style>
<g>
	<path class="st0" d="M486.8,56.4h-89.7V25.2c0-3.9-3.1-7-7-7h-29.8c-3.9,0-7,3.1-7,7c0,0,0,0,0,0v31.1h-75.3V25.2c0-3.9-3.1-7-7-7
		c0,0,0,0,0,0h-29.8c-3.9,0-7,3.1-7,7c0,0,0,0,0,0v31.1h-75.3V25.2c0-3.9-3.1-7-7-7c0,0,0,0,0,0h-29.9c-3.9,0-7,3.1-7,7v31.1H25.2
		c-3.9,0-7,3.1-7,7c0,0,0,0,0,0v423.4c0,3.9,3.1,7,7,7c0,0,0,0,0,0h461.5c3.9,0,7-3.1,7-7c0,0,0,0,0,0V63.4
		C493.8,59.5,490.6,56.4,486.8,56.4C486.8,56.4,486.8,56.4,486.8,56.4L486.8,56.4z M367.2,32.2H383v62.2h-15.8V32.2z M248.1,32.2
		h15.8v62.2h-15.8L248.1,32.2z M128.9,32.2h15.9v62.2h-15.9L128.9,32.2z M32.2,70.4h82.7v31.1c0,3.9,3.1,7,7,7h29.8c3.9,0,7-3.1,7-7
		c0,0,0,0,0,0V70.4h75.3v31.1c0,3.9,3.1,7,7,7c0,0,0,0,0,0h29.8c3.9,0,7-3.1,7-7c0,0,0,0,0,0V70.4h75.3v31.1c0,3.9,3.1,7,7,7
		c0,0,0,0,0,0H390c3.9,0,7-3.1,7-7V70.4h82.7v80.1H32.2L32.2,70.4z M32.2,479.8V164.5h447.5v315.3H32.2z"/>
	<path class="st0" d="M110.6,196.1c-17.7,0-32.1,14.4-32.1,32.1s14.4,32.1,32.1,32.1s32.1-14.4,32.1-32.1
		C142.8,210.5,128.4,196.1,110.6,196.1z M110.6,246.3c-10,0-18.1-8.1-18.1-18.1s8.1-18.1,18.1-18.1c10,0,18.1,8.1,18.1,18.1
		C128.8,238.2,120.7,246.3,110.6,246.3z"/>
	<path class="st0" d="M207.5,196.1c-17.7,0-32.1,14.4-32.1,32.1s14.4,32.1,32.1,32.1s32.1-14.4,32.1-32.1
		C239.7,210.5,225.3,196.1,207.5,196.1z M207.5,246.3c-10,0-18.1-8.1-18.1-18.1c0-10,8.1-18.1,18.1-18.1c10,0,18.1,8.1,18.1,18.1
		C225.7,238.2,217.6,246.3,207.5,246.3z"/>
	<path class="st0" d="M304.5,196.1c-17.7,0-32.1,14.4-32.1,32.1s14.4,32.1,32.1,32.1c17.7,0,32.1-14.4,32.1-32.1c0,0,0,0,0,0
		C336.6,210.5,322.2,196.1,304.5,196.1z M304.5,246.3c-10,0-18.1-8.1-18.1-18.1s8.1-18.1,18.1-18.1c10,0,18.1,8.1,18.1,18.1l0,0
		C322.6,238.2,314.5,246.3,304.5,246.3z"/>
	<path class="st0" d="M401.4,196.1c-17.7,0-32.1,14.4-32.1,32.1c0,17.7,14.4,32.1,32.1,32.1c17.7,0,32.1-14.4,32.1-32.1c0,0,0,0,0,0
		C433.5,210.5,419.1,196.1,401.4,196.1z M401.4,246.3c-10,0-18.1-8.1-18.1-18.1c0-10,8.1-18.1,18.1-18.1c10,0,18.1,8.1,18.1,18.1
		c0,0,0,0,0,0C419.5,238.2,411.4,246.3,401.4,246.3z"/>
	<path class="st0" d="M110.6,290c-17.7,0-32.1,14.4-32.1,32.1c0,17.7,14.4,32.1,32.1,32.1s32.1-14.4,32.1-32.1c0,0,0,0,0,0
		C142.8,304.4,128.4,290,110.6,290z M110.6,340.3c-10,0-18.1-8.1-18.1-18.1c0-10,8.1-18.1,18.1-18.1s18.1,8.1,18.1,18.1c0,0,0,0,0,0
		C128.8,332.1,120.6,340.2,110.6,340.3L110.6,340.3z"/>
	<path class="st0" d="M207.5,290c-17.7,0-32.1,14.4-32.1,32.1c0,17.7,14.4,32.1,32.1,32.1s32.1-14.4,32.1-32.1c0,0,0,0,0,0
		C239.7,304.4,225.3,290,207.5,290z M207.5,340.3c-10,0-18.1-8.1-18.1-18.1c0-10,8.1-18.1,18.1-18.1s18.1,8.1,18.1,18.1c0,0,0,0,0,0
		C225.7,332.1,217.6,340.2,207.5,340.3L207.5,340.3z"/>
	<path class="st0" d="M304.5,290c-17.7,0-32.1,14.4-32.1,32.1s14.4,32.1,32.1,32.1s32.1-14.4,32.1-32.1c0,0,0,0,0,0
		C336.6,304.4,322.2,290,304.5,290z M304.5,340.3c-10,0-18.1-8.1-18.1-18.1c0-10,8.1-18.1,18.1-18.1c10,0,18.1,8.1,18.1,18.1
		c0,0,0,0,0,0C322.6,332.1,314.5,340.2,304.5,340.3L304.5,340.3z"/>
	<path class="st0" d="M401.4,290c-17.7,0-32.1,14.4-32.1,32.1s14.4,32.1,32.1,32.1s32.1-14.4,32.1-32.1c0,0,0,0,0,0
		C433.5,304.4,419.1,290,401.4,290z M401.4,340.3c-10,0-18.1-8.1-18.1-18.1s8.1-18.1,18.1-18.1s18.1,8.1,18.1,18.1c0,0,0,0,0,0
		C419.5,332.1,411.4,340.2,401.4,340.3L401.4,340.3z"/>
	<path class="st0" d="M110.6,383.9c-17.7,0-32.1,14.4-32.1,32.1c0,17.7,14.4,32.1,32.1,32.1s32.1-14.4,32.1-32.1l0,0
		C142.8,398.3,128.4,383.9,110.6,383.9z M110.6,434.2c-10,0-18.1-8.1-18.1-18.1c0-10,8.1-18.1,18.1-18.1s18.1,8.1,18.1,18.1l0,0
		C128.8,426,120.7,434.2,110.6,434.2z"/>
	<path class="st0" d="M207.5,383.9c-17.7,0-32.1,14.4-32.1,32.1c0,17.7,14.4,32.1,32.1,32.1s32.1-14.4,32.1-32.1l0,0
		C239.7,398.3,225.3,383.9,207.5,383.9z M207.5,434.2c-10,0-18.1-8.1-18.1-18.1c0-10,8.1-18.1,18.1-18.1c10,0,18.1,8.1,18.1,18.1
		l0,0C225.7,426,217.6,434.2,207.5,434.2z"/>
	<path class="st0" d="M304.5,383.9c-17.7,0-32.1,14.4-32.1,32.1s14.4,32.1,32.1,32.1c17.7,0,32.1-14.4,32.1-32.1v0
		C336.6,398.3,322.2,383.9,304.5,383.9z M304.5,434.2c-10,0-18.1-8.1-18.1-18.1s8.1-18.1,18.1-18.1c10,0,18.1,8.1,18.1,18.1
		c0,0,0,0,0,0C322.6,426,314.5,434.2,304.5,434.2z"/>
	<path class="st0" d="M401.4,383.9c-17.7,0-32.1,14.4-32.1,32.1c0,17.7,14.4,32.1,32.1,32.1c17.7,0,32.1-14.4,32.1-32.1c0,0,0,0,0,0
		C433.5,398.3,419.1,383.9,401.4,383.9z M401.4,434.2c-10,0-18.1-8.1-18.1-18.1c0-10,8.1-18.1,18.1-18.1c10,0,18.1,8.1,18.1,18.1
		c0,0,0,0,0,0C419.5,426,411.4,434.2,401.4,434.2z"/>
</g>
</svg>
